<svg xmlns="http://www.w3.org/2000/svg" viewBox="0 0 869.33 833.8"><defs><style>.cls-1{fill:#333;}</style></defs><title>Asset 4</title><g id="Layer_2" data-name="Layer 2"><g id="Layer_1-2" data-name="Layer 1"><path class="cls-1" d="M859.83,362.37c-37.49-4.63-65.21-22.81-79.8-58.52-3.19-7.79-6.13-16-4.33-24.78,2.68-13,9.38-23.75,19.45-32.37,2.78-2.38,5.57-4.76,8.41-7.08a7.44,7.44,0,0,0,2.76-8,50.21,50.21,0,0,0-5.27-14.48,500.77,500.77,0,0,0-47.62-71.4c-2.66-3.3-5.11-3.8-8.51-1.67-1.83,1.15-3.75,2.15-5.56,3.35-10.68,7.1-21.56,13.91-32.51,20.58-5.71,3.47-8.06,3.17-12.75-1.54-3.18-3.19-5.86-6.82-9.16-9.9-9.6-9-18.84-18.27-28.68-27-5.38-4.75-5.18-7.07-1.8-13.57C661,103.5,668.6,91.54,674.88,78.83c2.57-5.21,1.85-6.25-2.49-9.1A560.08,560.08,0,0,0,593.3,26.07c-5.74-2.55-7.82-2.13-11.23,3.31-7,11.14-14,22.23-21.93,32.78-5.43,7.26-7.14,8.11-15.51,5.24a348.13,348.13,0,0,0-48.27-12.73c-7.13-1.35-7.93-2.88-8.51-10-1-13-1-25.95-.9-38.93C487,3,486.1,1,483.42,0h-97c-2.53,1.79-2.49,4.45-2.51,7.16-.07,13,.42,26-1,38.93-.58,5.34-1.72,7.4-6.36,8.13-17.85,2.81-35,8.1-51.95,14.21-5.8,2.08-7.7,1.25-11.79-3.29-9.77-10.86-16.95-23.46-24.3-35.94-3.76-6.38-4.48-6.75-11.39-3.44q-14,6.71-27.78,13.74a439.35,439.35,0,0,0-51.11,30.28c-4.78,3.31-4.78,4.7-1.87,9.84,7.05,12.46,14.4,24.76,20.75,37.61,3.07,6.2,2.39,8.91-2.81,13.58-3.1,2.78-6.5,5.21-9.52,8.08-9.55,9.05-18.87,18.32-28.12,27.68-4.31,4.36-7.06,4.79-12,1.8-8.12-4.91-16.71-9-24.39-14.68a128.36,128.36,0,0,0-14.49-8.85c-5.52-3-6.75-2.9-10.47,2Q103.14,163,91.81,179.76A388.5,388.5,0,0,0,63.32,229c-2.35,4.9-1.67,7.55,2.75,10.7,3.53,2.51,7.24,4.83,10.37,7.82,13.8,13.19,21.13,28.74,15.79,48.09-5.94,21.53-18.3,38.26-37.3,50.58a97.84,97.84,0,0,1-50.17,16.2c-3.22.14-4.94,1.42-4.74,4.8.05,1,0,2,0,3v94c0,8,0,8,7.79,8.23a50.12,50.12,0,0,1,6.47.55,101.28,101.28,0,0,1,54,26.1,82.37,82.37,0,0,1,23.9,38,41.13,41.13,0,0,1-.68,27c-4.52,12-12.81,20.84-23,28.18-7.63,5.47-8.16,7.85-4,16.32,9.65,19.66,21.83,37.77,34.32,55.66,5.62,8.06,10.85,16.4,17.19,23.94,3.85,4.59,5.44,4.82,10.63,1.82s10-6.08,15-8.94c8.57-4.83,16.41-10.82,25.1-15.45,3.23-1.73,6.32-2.37,9.12.57C189,679.83,202.61,693,216.52,706c3.14,2.92,3.73,6.11,1.58,9.85-7.23,12.54-12.54,26.12-20.81,38.12-4.5,6.53-3.78,8,2.69,12.58,12.53,8.91,26.09,16.1,39.49,23.48,13.12,7.22,26.54,14,40.32,19.9,2.91,1.25,5,1.13,6.51-1.94.88-1.79,2-3.48,3-5.18,6.82-11.25,13.55-22.57,21.72-32.92,4.62-5.85,7.31-7,14.27-4.63a420,420,0,0,0,50.1,13.65c6.17,1.3,6.93,3,7.59,9.34,1.34,12.8.83,25.62.94,38.43,0,2.71,0,5.37,2.51,7.16h98c2.09-1.53,2.51-3.69,2.52-6.14,0-12.81-.15-25.61.91-38.41.59-7.25,1.23-8.76,8.22-10.32a500.65,500.65,0,0,0,49.61-13.5c7.43-2.47,9.19-1.53,13.88,4.78,8.46,11.37,15.44,23.71,23.35,35.44,3.3,4.89,4.6,5.21,10,2.82a582.54,582.54,0,0,0,73.56-39.12c10.73-6.74,11.17-8,4.74-19.09s-11.87-22.72-17.77-34.09c-2.57-4.94-2.16-7.44,1.69-10.65,13.84-11.53,26.21-24.58,39-37.25,5.19-5.16,6.94-5.5,13-1.73,11.89,7.35,23.71,14.82,35,23.11,6,4.41,6.94,4.17,11.67-1.63,9.68-11.88,19.06-24,27.23-37,9.31-14.79,18.72-29.51,25.75-45.59,2.08-4.77,1.42-7.41-2.51-10.91-2.86-2.56-6-4.77-8.85-7.31-9-8-16.56-17-18.69-29.29-2.32-13.38.66-25.87,7.22-37.49a91.84,91.84,0,0,1,32.65-33.57,96.11,96.11,0,0,1,46.63-14.47c2.44-.12,4.61-.44,6.14-2.53v-104C866.83,362.94,863.33,362.8,859.83,362.37ZM658.66,604.64c-22.61,29.92-49.32,55.25-81.64,74.65-24.32,14.6-49.92,25.87-77.42,32.77a253,253,0,0,1-63.27,7.8c-56.42-.3-107.71-17.16-154.48-48.3A273.39,273.39,0,0,1,218.19,613a173,173,0,0,1-14.54-21.48c-.53-1-1.57-2.16-.51-3.12.52-.48,1.91-.25,2.82,0,36.56,9.75,71.55,3.88,105.83-10.24,24.57-10.13,45.36-25.63,64.33-44,10.65-10.29,21.55-20.33,32.49-30.33,3.15-2.88,2.84-5,0-7.79C395.29,483.19,382,470.37,369,457.24c-3.29-3.32-5.19-2.75-8.1.1-15,14.67-30.34,29-46.25,42.66-17.38,14.94-36.85,25.67-59.8,29.14-24.41,3.69-47.81.24-68.7-13-27-17.16-43-42.1-47.41-74.05-2.63-19-.8-37.43,7.55-55.07,8-16.79,20.52-29.08,36.66-37.53,28.2-14.76,57.28-13,86.08-2.16,27.14,10.25,50,27.69,72.14,45.93,25.47,21,48.75,44.29,72.25,67.37C431.07,478,448.14,496,466.14,513,494,539.32,522.26,565.27,557,582.51c24,11.89,49.28,19.13,76.28,19.58,7.69.13,15.27-.86,22.88-1.64,1.28-.13,2.82-.85,3.63.61S659.45,603.59,658.66,604.64ZM725.41,436.5c-9.36,32.34-35.35,56.06-69.73,59.22-29.5,2.7-56.59-5.18-82-19.89C550,462.14,529.51,444.51,509.58,426c-25.14-23.35-48.94-48-73.37-72.09-19.82-19.51-39.9-38.74-61-56.8-29.08-24.84-60.48-46.11-97.63-56.94-20.56-6-41.76-8.36-63.23-4.91-1.29.21-2.95,1-3.75-.18-.9-1.34.8-2.34,1.53-3.36,26.24-37,59.92-65.28,100.17-86.05,25.38-13.09,51.95-22.44,80.16-26.81,14.79-2.29,29.66-4.39,40-3.82,51.19.34,94.58,12.06,135,34.82a282.25,282.25,0,0,1,85.21,72.85c5.72,7.33,10.6,15.32,15.8,23.06.66,1,2.36,2,1.07,3.38-.9,1-2.23.11-3.28-.27-11.21-4.09-22.8-5.79-34.71-6.41A165.15,165.15,0,0,0,570.61,251a181.67,181.67,0,0,0-53.76,28.14c-12.59,9.63-23.38,21.25-34.68,32.31-8.2,8-15.53,16.95-24.37,24.32-2.26,1.89-1.54,3.45.12,5,14.64,13.33,29.36,26.57,43.92,40,2.89,2.67,4.53,1.27,6.61-.79,11.94-11.84,23.64-23.94,36-35.36,17.39-16.07,37.23-27.9,60.7-33.09,48.66-10.75,91.26,9.06,113.45,53.14C730.05,387.41,732.59,411.71,725.41,436.5Z"/></g></g></svg>